<svg width="80" height="80" viewBox="0 0 80 80" fill="none" xmlns="http://www.w3.org/2000/svg">
<rect width="80" height="80" rx="16" fill="white"/>
<path d="M20 52.6236V37.2317H35.3919V28H60V52.6246H20V52.6236Z" fill="#FF0508"/>
<path d="M28.3685 47.7587H28.0361L26.4586 40.6848H23.5194V49.2527H25.0473V42.1787H25.3797L26.9077 49.2527H29.4979L31.0589 42.1787H31.3913V49.2527H32.9192V40.6848H29.98L28.3685 47.7587ZM43.8771 49.2527H49.2404V47.7578H45.4381V45.6156H48.7087V44.1887H45.4381V42.1797H49.2404V40.6848H43.8771V49.2527ZM38.3982 47.9745C36.6545 47.9745 35.8409 46.6624 35.8409 44.9692C35.8409 43.2761 36.6545 41.9639 38.3982 41.9639C40.1419 41.9639 40.9554 43.2761 40.9554 44.9692C40.9554 46.6624 40.1419 47.9745 38.3982 47.9745ZM38.3982 40.4691C35.7748 40.4691 34.2469 42.2788 34.2469 44.9352C34.2469 47.5916 35.7748 49.4684 38.3982 49.4684C41.0215 49.4684 42.5494 47.5925 42.5494 44.9352C42.5494 42.2788 41.0215 40.4691 38.3982 40.4691ZM50.3202 49.2527H51.9803L53.8397 45.8654L55.8322 49.2527H57.4923L54.8359 44.769L57.3271 40.6839H55.667L53.9233 43.7387L52.1465 40.6839H50.4864L52.8774 44.7185L50.3202 49.2527Z" fill="white"/>
</svg>
