<?xml version="1.0" encoding="utf-8"?>
<!-- Generator: Adobe Illustrator 27.7.0, SVG Export Plug-In . SVG Version: 6.00 Build 0)  -->
<svg version="1.1" id="Слой_1" xmlns="http://www.w3.org/2000/svg" xmlns:xlink="http://www.w3.org/1999/xlink" x="0px" y="0px"
	 viewBox="0 0 476 126" style="enable-background:new 0 0 476 126;" xml:space="preserve">
<style type="text/css">
	.st0{fill:#3CAE64;}
	.st1{fill:#2E6479;}
</style>
<g>
	<ellipse class="st0" cx="62.77" cy="63" rx="62.77" ry="63"/>
	<g>
		<g>
			<path class="st1" d="M146.86,50.09c0-9.11,5.35-14.67,12.49-14.67c3.42,0,6.09,1.67,7.74,3.49l-1.96,2.34
				c-1.48-1.59-3.35-2.66-5.72-2.66c-5.32,0-8.86,4.37-8.86,11.41c0,7.1,3.38,11.55,8.72,11.55c2.69,0,4.73-1.18,6.52-3.18
				l1.96,2.25c-2.22,2.59-4.98,4.08-8.64,4.08C152.11,64.71,146.86,59.26,146.86,50.09z"/>
			<path class="st1" d="M176.08,46.15h-6.98v-2.89h17.49v2.89h-6.98v18.04h-3.53V46.15z"/>
			<path class="st1" d="M191.24,43.26h2.92l0.3,2.41h0.12c1.88-1.57,4.23-2.94,6.64-2.94c5.39,0,8.27,4.19,8.27,10.66
				c0,7.13-4.27,11.3-9.03,11.3c-1.91,0-3.87-0.88-5.78-2.42l0.09,3.65v7.08h-3.53V43.26z M205.84,53.44c0-4.62-1.57-7.71-5.5-7.71
				c-1.76,0-3.55,0.98-5.57,2.86v10.97c1.88,1.59,3.7,2.17,5.08,2.17C203.3,61.72,205.84,58.61,205.84,53.44z"/>
			<path class="st1" d="M213.5,53.75c0-6.98,4.55-11.01,9.66-11.01c5.11,0,9.66,4.02,9.66,11.01c0,6.93-4.55,10.95-9.66,10.95
				C218.05,64.7,213.5,60.68,213.5,53.75z M229.18,53.75c0-4.8-2.43-8.06-6.01-8.06c-3.59,0-6.02,3.27-6.02,8.06s2.43,8,6.02,8
				C226.76,61.75,229.18,58.55,229.18,53.75z"/>
			<path class="st1" d="M238.31,43.26h3.44v8.7c0,2.22-0.18,5.04-0.33,7.72h0.16c0.78-1.29,2-3.2,2.77-4.47l7.89-11.95h3.28v20.93
				h-3.44v-8.7c0-2.22,0.18-5.02,0.34-7.72h-0.17c-0.78,1.29-1.98,3.22-2.76,4.47l-7.91,11.95h-3.28V43.26H238.31z M240.31,32.92
				h2.9c0.09,2.45,0.97,4.51,3.82,4.51c2.85,0,3.73-2.05,3.82-4.51h2.9c-0.17,3.35-1.9,6.58-6.71,6.58
				C242.22,39.5,240.48,36.27,240.31,32.92z"/>
			<path class="st1" d="M262.88,35.93h16.24v3.05h-12.65v25.21h-3.59V35.93z"/>
			<path class="st1" d="M277.87,53.75c0-6.81,4.57-11.01,9.38-11.01c5.32,0,8.33,3.83,8.33,9.82c0,0.74-0.06,1.5-0.16,2.01h-14.05
				c0.25,4.43,2.96,7.31,6.93,7.31c2,0,3.65-0.65,5.19-1.67l1.26,2.32c-1.82,1.2-4.05,2.17-6.88,2.17
				C282.29,64.71,277.87,60.63,277.87,53.75z M292.45,52.04c0-4.19-1.88-6.48-5.14-6.48c-2.94,0-5.55,2.36-5.98,6.48H292.45z"/>
			<path class="st1" d="M299.15,53.75c0-6.98,4.55-11.01,9.66-11.01s9.66,4.02,9.66,11.01c0,6.93-4.55,10.95-9.66,10.95
				S299.15,60.68,299.15,53.75z M314.83,53.75c0-4.8-2.43-8.06-6.02-8.06c-3.59,0-6.01,3.27-6.01,8.06s2.43,8,6.01,8
				C312.39,61.75,314.83,58.55,314.83,53.75z"/>
			<path class="st1" d="M329.11,49.6l-7.66-13.66h3.96l3.84,7.23c0.71,1.29,1.31,2.46,2.19,4.1h0.17c0.76-1.65,1.31-2.82,1.98-4.1
				l3.75-7.23h3.77l-7.66,13.84l8.2,14.42h-3.96l-4.13-7.6c-0.74-1.41-1.5-2.82-2.4-4.55h-0.17c-0.82,1.72-1.52,3.13-2.23,4.55
				l-4.07,7.6h-3.78L329.11,49.6z"/>
			<path class="st1" d="M344.24,53.75c0-6.98,4.55-11.01,9.66-11.01c5.11,0,9.66,4.02,9.66,11.01c0,6.93-4.55,10.95-9.66,10.95
				C348.78,64.7,344.24,60.68,344.24,53.75z M359.92,53.75c0-4.8-2.43-8.06-6.02-8.06s-6.01,3.27-6.01,8.06s2.43,8,6.01,8
				C357.49,61.75,359.92,58.55,359.92,53.75z"/>
			<path class="st1" d="M365.97,64.36l0.66-3.26c0.29,0.09,0.58,0.17,0.95,0.17c1.46,0,2.41-1.34,2.78-4.42
				c0.56-4.53,1.08-9.04,1.6-13.59h12.8v20.93h-3.53V46.15h-6.47c-0.45,3.85-0.9,7.73-1.38,11.58c-0.59,4.66-2.44,6.98-5.51,6.98
				C367.09,64.71,366.56,64.59,365.97,64.36z"/>
			<path class="st1" d="M392.54,71.6h-3.05l-0.36-8.04v-2.24h21.05v2.24l-0.36,8.04h-3.04v-7.4h-14.25V71.6z M403.63,46.15h-6.65
				l-0.81,7.07c-0.88,7.73-2.97,9.72-5.22,10.16l-0.79-2.07c1.16-0.62,2.09-2.02,2.92-8.78l1.1-9.27h12.98v19.86h-3.53V46.15H403.63
				z"/>
			<path class="st1" d="M414.65,43.26h3.44v8.7c0,2.22-0.18,5.04-0.33,7.72h0.16c0.78-1.29,2-3.2,2.77-4.47l7.89-11.95h3.28v20.93
				h-3.44v-8.7c0-2.22,0.18-5.02,0.34-7.72h-0.17c-0.78,1.29-1.98,3.22-2.75,4.47l-7.91,11.95h-3.28V43.26z"/>
			<path class="st1" d="M438.9,43.26h3.53v8.5h10.02v-8.5h3.53v20.93h-3.53v-9.29h-10.02v9.29h-3.53V43.26z"/>
			<path class="st1" d="M463,43.26h13v2.89h-9.47v18.04H463V43.26z"/>
		</g>
		<g>
			<path class="st1" d="M155.43,86.86c0-3.51,2.7-5.6,6.03-5.6c1.65,0,2.97,0.64,3.8,1.36l-1.25,1.23
				c-0.68-0.55-1.46-0.94-2.49-0.94c-2.14,0-3.68,1.48-3.68,3.89c0,2.45,1.42,3.93,3.63,3.93c1.17,0,2.07-0.44,2.82-1.11l1.25,1.2
				c-1.06,1.02-2.44,1.56-4.15,1.56C158.06,92.39,155.43,90.41,155.43,86.86z"/>
			<path class="st1" d="M173.1,83.06h-3.8v-1.61h9.94v1.6h-3.8v9.13h-2.33v-9.12H173.1z"/>
			<path class="st1" d="M184.46,81.45h4.15c2.93,0,5.09,0.82,5.09,3.31c0,2.39-2.17,3.48-5.01,3.48h-1.89v3.94h-2.33V81.45z
				 M188.49,86.72c1.96,0,2.9-0.63,2.9-1.96c0-1.34-1.02-1.79-2.98-1.79h-1.62v3.74h1.7V86.72z"/>
			<path class="st1" d="M198.5,86.78c0-3.47,2.37-5.52,5.81-5.52s5.81,2.06,5.81,5.52c0,3.47-2.37,5.61-5.81,5.61
				S198.5,90.25,198.5,86.78z M207.72,86.78c0-2.41-1.33-3.87-3.41-3.87s-3.41,1.46-3.41,3.87c0,2.41,1.33,3.95,3.41,3.95
				S207.72,89.2,207.72,86.78z"/>
			<path class="st1" d="M215.79,81.45h2.31v4.67c0,1.2-0.19,2.55-0.3,3.66h0.08l1.36-2.28l4.14-6.04h2.47v10.74h-2.31v-4.71
				c0-1.2,0.18-2.49,0.3-3.62h-0.08l-1.36,2.27l-4.14,6.05h-2.47V81.45z"/>
			<path class="st1" d="M234.88,83.06h-3.8v-1.61h9.94v1.6h-3.8v9.13h-2.33v-9.12H234.88z"/>
			<path class="st1" d="M246.24,81.45h7.93v1.6h-5.59v2.76h4.74v1.6h-4.74v3.18h5.79v1.6h-8.13V81.45z"/>
			<path class="st1" d="M258.31,92.24l0.44-1.73c0.18,0.05,0.34,0.08,0.56,0.08c0.67,0,1.17-0.29,1.78-2.72
				c0.54-2.12,0.97-4.2,1.46-6.42h7.13V92.2h-2.33v-9.14h-3c-0.38,1.74-0.72,3.36-1.1,5.02c-0.8,3.45-1.78,4.31-3.63,4.31
				C259.08,92.39,258.71,92.35,258.31,92.24z"/>
			<path class="st1" d="M276.08,81.45h2.33v4.15h2.05c2.94,0,5.01,0.92,5.01,3.17c0,2.44-2.09,3.41-5.03,3.41h-4.38V81.45H276.08z
				 M280.26,90.67c1.88,0,2.94-0.54,2.94-1.85c0-1.16-0.99-1.68-2.97-1.68h-1.81v3.53C278.42,90.67,280.26,90.67,280.26,90.67z"/>
			<path class="st1" d="M290.98,81.45h2.33v4.31h5.32v-4.31h2.33v10.74h-2.33v-4.76h-5.32v4.76h-2.33V81.45z"/>
			<path class="st1" d="M309.93,81.45h2.74l4.29,10.74h-2.47l-2-5.71c-0.42-1.14-0.8-2.36-1.19-3.54h-0.08
				c-0.36,1.19-0.75,2.4-1.17,3.54l-2.02,5.71h-2.38L309.93,81.45z M308.18,87.79h6.2v1.5h-6.2V87.79z"/>
			<path class="st1" d="M324.76,86.55l1.66,0.94l-3.48,4.71h-2.68L324.76,86.55z M327.99,88h-2.26c-2.57-0.04-4.69-1.05-4.69-3.36
				c0-2.39,2.11-3.19,4.85-3.19h4.44v10.74h-2.33V88z M327.99,86.47v-3.49h-1.86c-1.8,0-2.79,0.42-2.79,1.66
				c0,1.22,0.98,1.83,2.79,1.83H327.99z"/>
			<path class="st1" d="M343.76,81.45h2.33v4.37h3.21l4.89,6.37h-2.48l-3.77-4.82h-1.84v4.82h-2.33V81.45z M347.71,86.18l2.01-2.95
				c1.05-1.54,1.88-1.97,3.23-1.97c0.31,0,0.66,0.03,0.9,0.12l-0.39,1.74c-0.19-0.05-0.4-0.07-0.52-0.07c-0.59,0-0.94,0.2-1.59,1.17
				l-1.61,2.33L347.71,86.18z"/>
			<path class="st1" d="M357.99,86.78c0-3.47,2.37-5.52,5.81-5.52c3.43,0,5.81,2.06,5.81,5.52c0,3.47-2.37,5.61-5.81,5.61
				C360.37,92.39,357.99,90.25,357.99,86.78z M367.2,86.78c0-2.41-1.33-3.87-3.41-3.87c-2.07,0-3.41,1.46-3.41,3.87
				c0,2.41,1.33,3.95,3.41,3.95C365.87,90.73,367.2,89.2,367.2,86.78z"/>
			<path class="st1" d="M375.28,81.45h2.65l2.32,5.25c0.29,0.68,0.55,1.41,0.84,2.11h0.08c0.29-0.7,0.54-1.43,0.83-2.11l2.28-5.25
				h2.65v10.74h-2.14v-4.91c0-1,0.18-2.42,0.3-3.42H385l-1.06,2.49l-2.16,4.83h-1.38l-2.17-4.83l-1.04-2.49h-0.08
				c0.11,1,0.3,2.42,0.3,3.42v4.91h-2.1V81.45H375.28z"/>
			<path class="st1" d="M393.3,81.45h9.82v10.74h-2.34v-9.13h-5.15v9.13h-2.33V81.45H393.3z"/>
			<path class="st1" d="M412.07,81.45h2.74l4.29,10.74h-2.47l-2-5.71c-0.42-1.14-0.8-2.36-1.19-3.54h-0.08
				c-0.36,1.19-0.75,2.4-1.17,3.54l-2.02,5.71h-2.38L412.07,81.45z M410.31,87.79h6.2v1.5h-6.2V87.79z"/>
			<path class="st1" d="M423.74,81.45h2.33v4.31h5.32v-4.31h2.33v10.74h-2.33v-4.76h-5.32v4.76h-2.33V81.45z"/>
			<path class="st1" d="M440.11,81.45h2.31v4.67c0,1.2-0.18,2.55-0.3,3.66h0.08l1.36-2.28l4.14-6.04h2.47v10.74h-2.31v-4.71
				c0-1.2,0.18-2.49,0.3-3.62h-0.08l-1.36,2.27l-4.14,6.05h-2.47V81.45z"/>
			<path class="st1" d="M459.69,86.55l1.66,0.94l-3.47,4.71h-2.68L459.69,86.55z M462.93,88h-2.26c-2.57-0.04-4.69-1.05-4.69-3.36
				c0-2.39,2.11-3.19,4.85-3.19h4.44v10.74h-2.33V88z M462.93,86.47v-3.49h-1.86c-1.8,0-2.79,0.42-2.79,1.66
				c0,1.22,0.98,1.83,2.79,1.83H462.93z"/>
		</g>
	</g>
	<g>
		<path class="st1" d="M43.4,59.05c1.54-2.12,3.43-3.96,5.57-5.47c2.02-1.43,4.27-2.55,6.68-3.3c0.93-0.29,1.88-0.52,2.86-0.69v-6.7
			c-1.44,0.17-2.85,0.43-4.21,0.75c-4.44,1.28-8.46,3.53-11.82,6.52l-0.32,0.29c-0.76,0.68-1.49,1.42-2.18,2.18
			c-0.15,0.17-0.3,0.34-0.45,0.52c-0.37,0.42-0.73,0.86-1.07,1.31c-0.2,0.26-0.39,0.52-0.58,0.79c-0.19,0.26-0.38,0.53-0.56,0.8
			c-0.19,0.27-0.37,0.54-0.55,0.81l-0.02,0.02c-0.51,0.82-0.99,1.68-1.43,2.54c-2.11,4.19-3.33,8.94-3.33,13.97
			c0,0.29,0.02,0.58,0.03,0.87l-0.03,0.01c0.01,0.37,0.03,0.75,0.06,1.13h0.01c0,0,0,0,0,0.01c0.05,0.02,0.1,0.03,0.15,0.05
			c0.08,0.03,0.16,0.06,0.24,0.08c0.15,0.05,0.29,0.08,0.44,0.13c0.24,0.07,0.49,0.15,0.73,0.21c0.2,0.05,0.4,0.09,0.6,0.13
			c0.24,0.05,0.49,0.11,0.73,0.15c0.24,0.04,0.48,0.07,0.72,0.1c0.2,0.03,0.41,0.06,0.61,0.08c0.45,0.04,0.89,0.06,1.34,0.06
			c0.37,0,0.77-0.02,1.21-0.04v-0.01c0.01,0,0.02,0,0.03,0c-0.12-0.98-0.18-1.96-0.18-2.97c0-3.99,0.97-7.76,2.68-11.08
			C41.95,61.18,42.63,60.07,43.4,59.05z"/>
		<path class="st1" d="M81.22,57.87c0.03,0.04,0.12,0.2,0.23,0.37h8.01c-0.03-0.05-0.05-0.08-0.06-0.1c-0.4-0.75-0.83-1.5-1.3-2.22
			c-2.39-3.66-5.69-6.82-9.41-9.11c-1.75-1.08-3.62-1.98-5.56-2.66c-0.97-0.34-1.95-0.63-2.96-0.87c-0.14-0.03-1.3-0.23-1.99-0.36
			v6.8c1.93,0.44,3.75,1.23,5.53,2.1C76.6,53.24,79.27,55.27,81.22,57.87z"/>
		<rect x="59.52" y="78.95" class="st1" width="7.65" height="14.95"/>
		<polygon class="st1" points="95.15,33.97 95.15,59.25 67.17,59.25 67.17,33.97 59.52,33.97 59.52,69.36 67.17,69.36 67.17,65.96 
			95.15,65.96 95.15,93.9 102.81,93.9 102.81,33.97 		"/>
		<path class="st1" d="M56.87,70.51c-0.49,2.74-1.61,5.3-3.28,7.43h17.76v18.53c0,0.48-1.14,0.94-2.24,1.19
			c-1.28,0.3-5.22,0.87-11.32-0.62c-6.81-1.67-13.23-5.85-16.33-12.28c-0.09,0.01-0.17,0.03-0.26,0.04
			c-1.14,0.17-2.38,0.26-3.68,0.26c-1.19,0-2.31-0.07-3.38-0.23c1.27,3.24,3.11,6.24,5.38,8.88c2.31,2.68,5.1,4.97,8.19,6.71
			c3.48,1.97,7.3,3.2,11.27,3.67c6.7,0.8,13.6,0.19,19.66-2.85c0.12-0.06,0.64-0.35,0.91-0.5c0.1-0.06,0.16-0.17,0.16-0.28v-30.1
			H56.89C56.89,70.41,56.88,70.46,56.87,70.51z"/>
		<path class="st1" d="M32.08,53.56l4.31,2.06c1.45-2.18,3.17-4.17,5.1-5.91l-4.4-2.06c-4.29-1.96-9.07-4.1-9.07-9.82
			c0-5.31,4.07-8.67,10.21-8.67c5.06,0,9.07,2.13,12.42,5.57l3.7-4.86c-3.85-4.31-9.63-7.36-16.12-7.36
			C28.28,22.51,21,29.19,21,38.27C21,47,26.98,51.19,32.08,53.56z"/>
		<path class="st1" d="M41.01,83.82h0.03c4.81-0.69,8.66-2.84,11.26-5.87c0.01-0.01,0.02-0.02,0.03-0.03
			c1.83-2.14,3.05-4.74,3.56-7.58c0.19-1.02,0.28-2.06,0.28-3.14c0-6.33-2.53-10.23-6.3-13c-2.14,1.46-4.05,3.28-5.6,5.37
			c2.91,1.77,4.82,3.99,4.82,8.21c0,5.39-3.73,9.13-10.07,9.6h-0.03c-0.44,0.03-0.89,0.05-1.35,0.05c-1.87,0-3.73-0.32-5.5-0.91
			c-3.63-1.19-6.95-3.48-9.6-6.46l-4.17,5.19c3.99,4.52,9.28,7.62,15.38,8.53c0.01,0,0.01,0,0.02,0c1.22,0.2,2.46,0.29,3.75,0.29
			C38.72,84.07,39.9,83.99,41.01,83.82z"/>
	</g>
</g>
</svg>
