<svg width="80" height="80" viewBox="0 0 80 80" fill="none" xmlns="http://www.w3.org/2000/svg">
<rect width="80" height="80" rx="16" fill="white"/>
<path d="M20 20H60.0001V40.1171C60.0001 45.2743 57.2489 50.0398 52.7829 52.6186L40 60L27.2172 52.6186C22.7511 50.0398 20 45.2743 20 40.1171V20Z" fill="#FFDD2D"/>
<path fill-rule="evenodd" clip-rule="evenodd" d="M30.9781 30.5892V36.846C31.8337 35.8799 33.3894 35.226 35.168 35.226H37.1009V42.4995C37.1009 44.4346 36.5752 46.1283 35.7951 47.06H44.2028C43.4243 46.1274 42.8997 44.4358 42.8997 42.5032V35.226H44.8327C46.6114 35.226 48.167 35.8799 49.0226 36.846V30.5892H30.9781Z" fill="#333333"/>
</svg>
